<svg width="256" height="256" viewBox="0 0 256 256" fill="none" xmlns="http://www.w3.org/2000/svg">
<mask id="mask0" mask-type="alpha" maskUnits="userSpaceOnUse" x="0" y="0" width="256" height="256">
<path d="M256 128C256 198.692 198.692 256 128 256C57.3075 256 0 198.692 0 128C0 57.3075 57.3075 0 128 0C198.692 0 256 57.3075 256 128Z" fill="#C4C4C4"/>
</mask>
<g mask="url(#mask0)">
<path fill-rule="evenodd" clip-rule="evenodd" d="M137.379 244.634C201.71 239.571 249.757 183.316 244.694 118.984C239.631 54.653 183.375 6.60641 119.044 11.6694C54.7124 16.7324 6.66588 72.9877 11.7289 137.319C16.7919 201.651 73.0471 249.697 137.379 244.634ZM138.684 261.226C212.179 255.442 267.07 191.173 261.285 117.679C255.501 44.1837 191.233 -10.7066 117.738 -4.92246C44.2432 0.861711 -10.6472 65.1301 -4.86299 138.625C0.92118 212.12 65.1895 267.01 138.684 261.226Z" fill="black"/>
<path fill-rule="evenodd" clip-rule="evenodd" d="M130.497 157.187C114.461 158.45 100.438 146.473 99.1758 130.437C97.9137 114.401 109.89 100.378 125.926 99.1159C141.962 97.8539 155.985 109.831 157.247 125.867C158.509 141.903 146.533 155.925 130.497 157.187ZM131.313 167.557C109.55 169.27 90.5187 153.016 88.8059 131.253C87.0931 109.49 103.347 90.4588 125.11 88.746C146.873 87.0332 165.904 103.287 167.617 125.05C169.33 146.814 153.076 165.845 131.313 167.557Z" fill="black"/>
<path d="M105.028 129.976C106.036 142.78 117.232 152.343 130.036 151.335C142.84 150.328 152.403 139.131 151.395 126.327C150.387 113.523 139.191 103.96 126.387 104.968C113.583 105.976 104.02 117.172 105.028 129.976Z" fill="black"/>
<path d="M119.379 84.7326L113.324 94.3812L136.475 92.5591L141.391 85.5915C150.378 72.8555 150.363 55.8391 141.356 43.1182L141.105 42.7647C135.006 34.1509 133.011 23.2874 135.652 13.0685C138.123 3.5102 136.543 -6.64387 131.286 -15.0002L119.554 -33.6484L107.978 -32.7374L117.192 -16.0761C122.45 -6.5692 122.491 4.96355 117.303 14.5083C111.771 24.6852 112.208 37.0648 118.445 46.8257L119.23 48.0546C126.367 59.2237 126.425 73.506 119.379 84.7326Z" fill="black"/>
<path fill-rule="evenodd" clip-rule="evenodd" d="M106.286 -33.6476L120.099 -34.7347L132.167 -15.5541C137.576 -6.95541 139.202 3.49322 136.659 13.3288C134.095 23.2512 136.032 33.7996 141.954 42.1635L142.205 42.5171C151.467 55.5976 151.482 73.0951 142.241 86.1912L137.044 93.5578L111.343 95.5805L118.498 84.1796C125.33 73.2937 125.274 59.4448 118.354 48.6147L117.569 47.3858C111.128 37.3057 110.676 24.5212 116.389 14.0115C121.408 4.77888 121.367 -6.37672 116.282 -15.5728L106.286 -33.6476ZM109.67 -31.8271L118.102 -16.5796C123.532 -6.76171 123.575 5.14819 118.217 15.0051C112.866 24.8491 113.289 36.8239 119.322 46.2656L120.107 47.4946C127.46 59.0025 127.52 73.7183 120.26 85.2855L115.304 93.1819L135.907 91.5604L140.541 84.9918C149.274 72.6159 149.26 56.0805 140.507 43.7194L140.256 43.3658C133.98 34.5021 131.927 23.3235 134.645 12.8082C137.044 3.52714 135.51 -6.33238 130.406 -14.4463L119.008 -32.5621L109.67 -31.8271Z" fill="black"/>
<path d="M146.364 87.8236L135.869 92.254L155.879 104.041L163.902 101.153C178.568 95.8745 188.317 81.9273 188.235 66.3403L188.232 65.9071C188.177 55.3526 192.774 45.3095 200.799 38.4537C208.305 32.0411 212.835 22.8174 213.322 12.9569L214.407 -9.0481L204.403 -14.9414L202.394 3.99159C201.247 14.7948 194.667 24.2658 184.942 29.1084C174.573 34.2717 167.831 44.6635 167.341 56.2364L167.279 57.6935C166.719 70.9359 158.574 82.6685 146.364 87.8236Z" fill="black"/>
<path fill-rule="evenodd" clip-rule="evenodd" d="M203.539 -16.6575L215.477 -9.62511L214.361 13.0082C213.86 23.1547 209.198 32.6459 201.474 39.2446C193.682 45.9015 189.218 55.6532 189.273 65.9016L189.275 66.3348C189.36 82.3624 179.335 96.7041 164.255 102.132L155.772 105.185L133.559 92.1003L145.959 86.8653C157.799 81.8667 165.697 70.49 166.24 57.6495L166.302 56.1924C166.807 44.241 173.77 33.5094 184.478 28.1773C193.885 23.493 200.251 14.3318 201.359 3.88183L203.539 -16.6575ZM205.266 -13.2252L203.428 4.10134C202.244 15.2578 195.448 25.0386 185.406 30.0396C175.376 35.034 168.854 45.0859 168.38 56.2804L168.319 57.7374C167.741 71.3817 159.349 83.4704 146.768 88.7819L138.18 92.4077L155.986 102.897L163.55 100.174C177.802 95.045 187.275 81.4921 187.194 66.3458L187.192 65.9126C187.135 55.0519 191.865 44.7175 200.123 37.6628C207.411 31.4362 211.81 22.4801 212.283 12.9057L213.337 -8.4711L205.266 -13.2252Z" fill="black"/>
<path d="M167.106 107.782L156.083 104.908L164.783 126.44L172.906 129.034C187.755 133.774 203.979 128.644 213.403 116.228L213.665 115.882C220.046 107.475 229.807 102.306 240.347 101.752C250.206 101.234 259.415 96.6742 265.803 89.1476L280.061 72.3507L275.711 61.5847L262.591 75.3824C255.105 83.2553 244.119 86.7631 233.456 84.6849C222.086 82.4691 210.411 86.609 202.978 95.4922L202.042 96.6106C193.536 106.775 179.932 111.125 167.106 107.782Z" fill="black"/>
<path fill-rule="evenodd" clip-rule="evenodd" d="M276.07 59.6973L281.261 72.5443L266.596 89.8207C260.022 97.5657 250.546 102.258 240.401 102.791C230.167 103.328 220.689 108.348 214.493 116.511L214.231 116.856C204.542 129.623 187.858 134.899 172.59 130.024L164.001 127.283L154.344 103.38L167.369 106.775C179.805 110.017 192.996 105.799 201.244 95.9431L202.18 94.8247C209.857 85.6509 221.914 81.3756 233.655 83.6639C243.969 85.6742 254.596 82.2811 261.838 74.6656L276.07 59.6973ZM275.352 63.4722L263.345 76.0991C255.614 84.2296 244.269 87.8521 233.257 85.7059C222.259 83.5625 210.966 87.567 203.775 96.1598L202.839 97.2782C194.075 107.751 180.059 112.233 166.844 108.788L157.823 106.437L165.564 125.598L173.223 128.043C187.651 132.649 203.417 127.664 212.574 115.599L212.836 115.254C219.402 106.602 229.446 101.283 240.292 100.713C249.865 100.21 258.807 95.7827 265.01 88.4744L278.86 72.1572L275.352 63.4722Z" fill="black"/>
<path d="M172.625 137.853L165.867 128.682L159.077 150.891L163.758 158.019C172.314 171.047 188.152 177.271 203.289 173.552L203.71 173.448C213.96 170.93 224.799 173.056 233.338 179.258C241.326 185.06 251.352 187.312 261.054 185.483L282.705 181.402L286.099 170.298L267.221 172.765C256.448 174.172 245.703 169.984 238.724 161.658C231.282 152.781 219.604 148.651 208.236 150.877L206.805 151.157C193.798 153.703 180.488 148.523 172.625 137.853Z" fill="black"/>
<path fill-rule="evenodd" clip-rule="evenodd" d="M287.566 169.057L283.515 182.308L261.247 186.506C251.264 188.387 240.946 186.07 232.727 180.1C224.435 174.077 213.911 172.014 203.958 174.459L203.537 174.562C187.972 178.386 171.687 171.987 162.889 158.59L157.94 151.054L165.477 126.4L173.462 137.236C181.087 147.582 193.993 152.605 206.605 150.136L208.037 149.856C219.776 147.558 231.836 151.823 239.521 160.99C246.272 169.043 256.666 173.094 267.086 171.733L287.566 169.057ZM284.632 171.539L267.355 173.796C256.231 175.249 245.134 170.925 237.926 162.327C230.729 153.74 219.432 149.745 208.436 151.897L207.005 152.178C193.603 154.801 179.889 149.464 171.788 138.47L166.257 130.965L160.215 150.728L164.628 157.448C172.942 170.108 188.332 176.155 203.041 172.542L203.462 172.438C214.009 169.847 225.162 172.034 233.95 178.417C241.706 184.05 251.441 186.237 260.861 184.461L281.894 180.497L284.632 171.539Z" fill="black"/>
<path d="M158.203 160.541L157.865 149.33L139.945 164.101L139.739 172.574C139.375 187.571 148.815 201.059 163.031 205.851L163.531 206.019C173.126 209.254 180.717 216.697 184.139 226.226C187.343 235.148 194.213 242.27 203.013 245.794L222.872 253.747L231.832 246.361L215.261 238.585C205.76 234.127 199.326 224.977 198.345 214.528C197.3 203.392 190.073 193.793 179.66 189.709L178.4 189.215C166.535 184.562 158.588 173.28 158.203 160.541Z" fill="black"/>
<path fill-rule="evenodd" clip-rule="evenodd" d="M233.762 246.118L223.058 254.942L202.626 246.76C193.55 243.125 186.465 235.779 183.16 226.578C179.845 217.347 172.493 210.138 163.199 207.005L162.699 206.837C148.051 201.899 138.324 188.001 138.7 172.549L138.917 163.601L158.84 147.178L159.243 160.509C159.615 172.832 167.302 183.746 178.78 188.247L180.04 188.741C190.818 192.968 198.299 202.904 199.381 214.431C200.328 224.513 206.536 233.342 215.703 237.644L233.762 246.118ZM229.902 246.605L214.819 239.527C204.985 234.912 198.325 225.441 197.31 214.625C196.301 203.88 189.328 194.618 179.28 190.678L178.02 190.184C165.767 185.378 157.561 173.728 157.164 160.572L156.889 151.482L140.974 164.602L140.779 172.599C140.426 187.141 149.58 200.219 163.363 204.865L163.863 205.034C173.76 208.37 181.588 216.046 185.118 225.875C188.222 234.516 194.876 241.415 203.4 244.829L222.687 252.552L229.902 246.605Z" fill="black"/>
<path d="M135.21 171.437L141.363 162.059L118.211 163.881L113.183 170.703C104.283 182.779 104.279 199.243 113.175 211.322L113.488 211.747C119.493 219.9 121.442 230.35 118.779 240.119C116.287 249.265 117.829 259.04 123.016 266.974L134.722 284.88L146.298 283.969L137.184 268.094C131.959 258.993 131.937 247.807 137.126 238.685C142.657 228.963 142.243 216.955 136.056 207.637L135.307 206.51C128.256 195.893 128.218 182.093 135.21 171.437Z" fill="black"/>
<path fill-rule="evenodd" clip-rule="evenodd" d="M148.019 284.877L134.189 285.965L122.146 267.543C116.796 259.36 115.205 249.279 117.776 239.846C120.355 230.383 118.467 220.261 112.651 212.363L112.338 211.939C103.172 199.492 103.175 182.529 112.346 170.086L117.656 162.882L143.396 160.856L136.08 172.007C129.316 182.316 129.353 195.664 136.173 205.935L136.922 207.062C143.327 216.707 143.756 229.136 138.03 239.199C133.023 248.001 133.044 258.794 138.086 267.576L148.019 284.877ZM144.577 283.061L136.282 268.612C130.873 259.191 130.85 247.613 136.222 238.171C141.559 228.79 141.159 217.204 135.189 208.213L134.44 207.085C127.159 196.121 127.12 181.871 134.34 170.866L139.329 163.263L118.767 164.881L114.02 171.32C105.39 183.029 105.387 198.993 114.013 210.705L114.326 211.13C120.519 219.539 122.529 230.317 119.783 240.393C117.369 249.252 118.862 258.72 123.887 266.405L135.256 283.794L144.577 283.061Z" fill="black"/>
<path d="M107.858 167.41L118.203 163.076L97.9907 151.641L90.0074 154.485C75.8758 159.519 66.667 173.166 67.2875 188.155L67.3093 188.682C67.7282 198.799 63.5 208.553 55.8298 215.163C48.6493 221.351 44.4617 230.318 44.3254 239.796L44.0177 261.186L54.1239 266.904L55.4449 248.647C56.2022 238.18 62.4392 228.894 71.8423 224.233C81.8642 219.266 88.2356 209.08 88.3163 197.895L88.326 196.541C88.418 183.797 96.1028 172.335 107.858 167.41Z" fill="black"/>
<path fill-rule="evenodd" clip-rule="evenodd" d="M55.0427 268.619L42.9688 261.788L43.2853 239.781C43.4259 230.005 47.7449 220.757 55.1508 214.375C62.5802 207.972 66.6757 198.525 66.2701 188.725L66.2482 188.198C65.6089 172.754 75.0975 158.692 89.6584 153.505L98.0894 150.502L120.562 163.216L108.26 168.37C96.8889 173.133 89.4551 184.22 89.3662 196.549L89.3564 197.902C89.2729 209.48 82.6779 220.024 72.3042 225.165C63.2312 229.662 57.2131 238.622 56.4824 248.722L55.0427 268.619ZM53.2051 265.189L54.4074 248.572C55.1913 237.737 61.6472 228.125 71.3804 223.301C81.0505 218.509 87.1982 208.68 87.2761 197.887L87.2859 196.534C87.3808 183.373 95.3168 171.536 107.456 166.451L115.844 162.937L97.8922 152.78L90.3565 155.465C76.6542 160.346 67.7252 173.579 68.3268 188.112L68.3487 188.639C68.7806 199.074 64.4198 209.133 56.5089 215.951C49.5538 221.945 45.4975 230.63 45.3655 239.811L45.0667 260.584L53.2051 265.189Z" fill="black"/>
<path d="M88.675 148.044L99.3853 151.373L91.2525 129.621L83.3088 126.668C69.2475 121.441 53.4209 125.976 44.2617 137.857L43.9395 138.275C37.7573 146.294 28.2489 151.048 18.1242 151.181C8.64585 151.306 -0.325516 155.483 -6.52242 162.656L-20.5075 178.844L-16.4411 189.72L-3.69378 176.584C3.61461 169.052 14.3614 165.948 24.5602 168.422C35.4301 171.059 46.8586 167.351 54.11 158.835L54.9873 157.804C63.25 148.1 76.5043 144.26 88.675 148.044Z" fill="black"/>
<path fill-rule="evenodd" clip-rule="evenodd" d="M-16.8396 191.625L-21.6978 178.631L-7.30957 161.976C-0.918208 154.578 8.33468 150.27 18.1105 150.141C27.9175 150.012 37.1275 145.407 43.1157 137.639L43.4379 137.221C52.8753 124.98 69.1827 120.307 83.6712 125.693L92.0603 128.811L101.103 152.996L88.3662 149.037C76.5932 145.377 63.772 149.092 55.7793 158.479L54.9019 159.509C47.3961 168.324 35.5664 172.162 24.3149 169.433C14.4741 167.045 4.10457 170.041 -2.94728 177.308L-16.8396 191.625ZM-16.0426 187.816L-4.4403 175.859C3.12462 168.063 14.2486 164.85 24.8054 167.411C35.2937 169.956 46.3211 166.378 53.3179 158.16L54.1953 157.13C62.728 147.109 76.4154 143.143 88.9838 147.05L97.6679 149.75L90.4445 130.43L82.9463 127.643C69.3122 122.575 53.9664 126.972 45.0855 138.492L44.7633 138.91C38.3871 147.18 28.5803 152.083 18.1379 152.221C8.95698 152.342 0.267147 156.388 -5.7353 163.336L-19.3173 179.058L-16.0426 187.816Z" fill="black"/>
<path d="M84.1369 119.206L90.7658 128.254L97.167 105.93L92.5379 98.8314C84.3438 86.2655 68.924 80.497 54.4944 84.5993L53.9867 84.7437C44.2471 87.5127 33.7761 85.6782 25.5578 79.7631C17.8643 74.2257 8.16806 72.2469 -1.08009 74.327L-21.9512 79.0213L-25.1518 90.183L-7.09082 87.2055C3.26403 85.4984 13.7495 89.3952 20.4761 97.4506C27.6454 106.036 39.0379 109.853 49.9326 107.321L51.2508 107.014C63.6651 104.129 76.604 108.925 84.1369 119.206Z" fill="black"/>
<path fill-rule="evenodd" clip-rule="evenodd" d="M-26.6049 91.4768L-22.7811 78.1418L-1.30835 73.3121C8.23001 71.1668 18.2305 73.2076 26.1655 78.9189C34.1258 84.6483 44.2683 86.4252 53.7023 83.7431L54.2099 83.5988C69.078 79.3718 84.9662 85.3156 93.4092 98.2632L98.2979 105.76L91.1809 130.58L83.2978 119.821C76.011 109.876 63.495 105.236 51.4864 108.028L50.1681 108.334C38.891 110.955 27.0987 107.004 19.6777 98.1173C13.1872 90.3447 3.06976 86.5846 -6.92162 88.2318L-26.6049 91.4768ZM-23.6987 88.8892L-7.26002 86.1791C3.45829 84.4121 14.3118 88.4458 21.2746 96.7839C28.1922 105.068 39.1848 108.751 49.6971 106.308L51.0153 106.001C63.8352 103.021 77.1969 107.975 84.9759 118.592L90.3508 125.927L96.0361 106.1L91.6666 99.3996C83.7215 87.2154 68.7701 81.6221 54.7788 85.5999L54.2712 85.7442C44.226 88.6001 33.4263 86.7081 24.9502 80.6074C17.498 75.2437 8.1061 73.327 -0.851835 75.3418L-21.1213 79.9008L-23.6987 88.8892Z" fill="black"/>
<path d="M95.475 95.3217L95.2265 106.535L113.895 92.7213L114.544 84.2714C115.692 69.314 106.971 55.3505 93.0255 49.821L92.5349 49.6264C83.1223 45.8941 75.9318 38.0644 73.0127 28.3687C70.28 19.292 63.792 11.8194 55.1887 7.83975L35.7728 -1.14154L26.4388 5.76526L42.5802 14.3978C51.8344 19.3471 57.7808 28.8219 58.2137 39.3076C58.675 50.4832 65.3894 60.4471 75.5745 65.0701L76.8068 65.6294C88.4125 70.8973 95.7574 82.5796 95.475 95.3217Z" fill="black"/>
<path fill-rule="evenodd" clip-rule="evenodd" d="M24.4984 5.90709L35.6498 -2.34453L55.6254 6.89566C64.4987 11.0002 71.1902 18.7072 74.0087 28.0688C76.8362 37.4602 83.8011 45.0443 92.9183 48.6595L93.4089 48.854C107.778 54.5516 116.764 68.9392 115.581 84.3511L114.895 93.2748L94.1396 108.633L94.4351 95.2987C94.7083 82.9729 87.6033 71.6723 76.3769 66.5766L75.1445 66.0173C64.6019 61.232 57.6518 50.9184 57.1743 39.3505C56.7567 29.2328 51.019 20.0907 42.0896 15.3151L24.4984 5.90709ZM28.3793 5.62341L43.0707 13.4806C52.6498 18.6036 58.8049 28.4109 59.253 39.2647C59.6981 50.0481 66.1768 59.6621 76.0044 64.1229L77.2367 64.6823C89.2217 70.1222 96.8066 82.1863 96.515 95.3448L96.3135 104.437L112.894 92.1678L113.506 84.1918C114.62 69.6887 106.164 56.1495 92.6421 50.7879L92.1515 50.5934C82.4435 46.744 75.0273 38.6685 72.0167 28.6686C69.3697 19.8767 63.0853 12.6386 54.752 8.78384L35.8958 0.0614505L28.3793 5.62341Z" fill="black"/>
</g>
</svg>
